<svg width="118" height="118" viewBox="0 0 118 118" fill="none" xmlns="http://www.w3.org/2000/svg">
<circle cx="59.2003" cy="59.246" r="49.3861" transform="rotate(-11.8621 59.2003 59.246)" fill="#C4D01A"/>
<path d="M48.836 84.232C46.2237 84.7807 43.4091 84.3819 41.0285 82.7794L25.3553 72.5193L28.0908 68.4185L43.7388 78.5581C46.0248 79.995 48.3868 79.4393 49.8545 78.4489C51.3221 77.4586 52.7089 75.4986 52.1607 72.8887L46.3978 45.452L24.3047 50.0925L23.3089 45.3516L50.2707 39.6885L57.0293 71.8661C57.9006 76.0139 56.2382 80.2006 52.6555 82.6219C51.4612 83.429 50.2051 83.9412 48.8385 84.2282L48.836 84.232Z" fill="black"/>
<path d="M65.6044 79.7782L56.8915 38.2965L74.6468 34.5672C81.7146 33.0826 86.1568 37.4075 87.2399 42.5638C87.85 45.4686 87.2836 48.68 85.4382 51.1106L88.9466 53.3436C92.7308 55.7042 94.935 60.0059 94.7027 64.508C94.3348 71.0186 89.4169 74.7766 85.4985 75.5996L65.6044 79.7782ZM75.6426 39.308L62.756 42.0147L65.0213 52.7998L77.9079 50.0931C82.1854 49.1946 82.8814 46.0155 82.3712 43.5864C81.861 41.1573 79.9201 38.4096 75.6426 39.308ZM69.4773 74.0147L84.5027 70.8588C86.9974 70.3348 89.53 67.6374 89.6905 64.2628C89.8549 61.5066 88.5225 59.0019 86.2364 57.565L81.2211 54.3505L66.0177 57.5438L69.478 74.0179L69.4773 74.0147Z" fill="black"/>
</svg>
