<svg width="161" height="27" viewBox="0 0 161 27" fill="none" xmlns="http://www.w3.org/2000/svg">
<path d="M11.5464 0.348908C18.3456 0.348908 23.454 2.07569 23.454 9.1627C23.454 16.2497 18.3456 17.9405 11.5464 17.9405H8.45258V26.4305H0.933874V0.348908H11.5464ZM8.45258 6.42863V11.8608H12.2299C14.3884 11.8608 15.6475 11.0334 15.6475 9.1627C15.6475 7.25604 14.3884 6.42863 12.2299 6.42863H8.45258ZM27.6237 0.348908H35.8619L45.3232 26.4305H37.157L35.8259 22.0776H27.5158L26.1847 26.4305H18.1624L27.6237 0.348908ZM29.2785 16.4656H34.0991L31.7248 8.62308L29.2785 16.4656ZM55.2205 17.257H52.1267V26.4305H44.6079V0.348908H55.4003C62.2355 0.348908 67.3439 2.00374 67.3439 8.73101C67.3439 12.4724 65.4013 14.7028 62.7032 15.9259L68.8908 26.4305H60.4368L55.2205 17.257ZM52.1267 6.42863V11.573H56.2637C58.4582 11.573 59.5015 10.4938 59.5015 9.0188C59.5015 7.54384 58.4582 6.42863 56.2637 6.42863H52.1267ZM73.9015 6.78837H66.1309V0.348908H89.2267V6.78837H81.4202V26.4305H73.9015V6.78837ZM103.844 26.4305L95.8575 9.81025V26.4305H88.9144V0.348908H98.1599L106.182 16.9332V0.348908H113.125V26.4305H103.844ZM114.879 0.348908H135.529V6.78837H122.398V10.098H134.845V16.5735H122.398V19.9551H135.673V26.4305H114.879V0.348908ZM147.171 17.257H144.077V26.4305H136.558V0.348908H147.351C154.186 0.348908 159.294 2.00374 159.294 8.73101C159.294 12.4724 157.352 14.7028 154.654 15.9259L160.841 26.4305H152.387L147.171 17.257ZM144.077 6.42863V11.573H148.214C150.409 11.573 151.452 10.4938 151.452 9.0188C151.452 7.54384 150.409 6.42863 148.214 6.42863H144.077Z" fill="black"/>
</svg>
