<svg width="168" height="27" viewBox="0 0 168 27" fill="none" xmlns="http://www.w3.org/2000/svg">
<rect width="167.642" height="25.9018" transform="translate(-0.0078125 0.148315)" fill="white"/>
<path d="M12.1295 26.0501C10.5546 26.0501 8.9778 25.4705 7.7976 24.2395L-0.0078125 16.3054L2.06903 14.2409L9.87444 22.1014C11.0202 23.2238 12.4513 23.1889 13.4189 22.7896C14.3864 22.3902 15.4248 21.4133 15.4248 19.8179V3.04632H2.10543V0.148315H18.36V19.8179C18.36 22.3534 16.8924 24.6001 14.5301 25.5771C13.7427 25.9027 12.9552 26.0481 12.1314 26.0481L12.1295 26.0501Z" fill="black"/>
<path d="M21.0461 16.1969C21.0461 10.7983 24.9488 6.85156 30.3555 6.85156C35.7622 6.85156 39.5921 10.8002 39.5921 16.2337C39.5921 16.6311 39.5921 17.0304 39.5557 17.3929H23.9812C24.4468 21.0159 27.0237 23.3692 30.6045 23.3692C33.2542 23.3692 35.4729 22.0646 36.5841 19.9284L39.0192 21.1594C37.588 24.2028 34.4364 26.0501 30.5337 26.0501C25.0197 26.0501 21.0461 21.9561 21.0461 16.1969ZM24.0177 14.8555H36.5841C36.0821 11.7035 33.6125 9.53052 30.2463 9.53052C26.88 9.53052 24.5541 11.7035 24.0157 14.8555H24.0177Z" fill="black"/>
<path d="M43.1729 20.1436V9.85614H40.3086V7.39235H43.1729V1.77856H46.0372V7.39429H50.871V9.85808H46.0372V20.1455C46.0372 21.8126 47.0047 22.9718 48.7214 22.9718H50.8691V25.5073H47.9684C45.0333 25.5073 43.171 23.406 43.171 20.1455L43.1729 20.1436Z" fill="black"/>
<path d="M52.4842 19.3468H55.2412C55.2776 21.8823 57.2453 23.5843 60.5406 23.5843C63.2248 23.5843 64.9089 22.4619 64.9089 20.6146C64.9089 18.2962 62.5102 18.0791 59.8605 17.7534C56.567 17.3192 52.808 16.4856 52.808 12.4284C52.808 9.02257 55.6723 6.84955 59.8605 6.84955C64.0487 6.84955 67.2367 9.23967 67.2367 12.8995H64.4088C64.3724 10.7265 62.5466 9.35017 59.826 9.35017C57.2836 9.35017 55.5286 10.5094 55.5286 12.3199C55.5286 14.5666 57.8909 14.71 60.5042 15.0376C63.7977 15.4718 67.5931 16.3054 67.5931 20.5797C67.5931 24.0573 64.9434 26.05 60.4314 26.05C55.383 26.05 52.4823 23.5513 52.4823 19.3488L52.4842 19.3468Z" fill="black"/>
<path d="M74.7547 25.5054V0.148315H85.4589C89.7199 0.148315 91.7603 3.2266 91.7603 6.37854C91.7603 8.15417 91.0438 9.9647 89.6835 11.1607L91.4385 12.8995C93.3371 14.7469 94.0882 17.5363 93.408 20.1436C92.406 23.91 89.1106 25.5054 86.7483 25.5054H74.7547ZM85.4589 3.04632H77.6899V9.63903H85.4589C88.0377 9.63903 88.8252 7.8634 88.8252 6.37854C88.8252 4.89367 88.0377 3.04632 85.4589 3.04632ZM77.6899 22.6074H86.7483C88.2523 22.6074 90.0418 21.3396 90.5437 19.3837C90.9729 17.7903 90.5073 16.16 89.3616 15.0377L86.8556 12.539H77.6899V22.6093V22.6074Z" fill="black"/>
<path d="M95.6286 16.1969C95.6286 10.7983 99.5313 6.85156 104.938 6.85156C110.345 6.85156 114.175 10.8002 114.175 16.2337C114.175 16.6311 114.175 17.0304 114.138 17.3929H98.5637C99.0293 21.0159 101.606 23.3692 105.187 23.3692C107.837 23.3692 110.055 22.0646 111.167 19.9284L113.602 21.1594C112.17 24.2028 109.019 26.0501 105.116 26.0501C99.6021 26.0501 95.6286 21.9561 95.6286 16.1969ZM98.6001 14.8555H111.167C110.665 11.7035 108.195 9.53052 104.829 9.53052C101.462 9.53052 99.1366 11.7035 98.5982 14.8555H98.6001Z" fill="black"/>
<path d="M117.757 20.1436V9.85614H114.893V7.39235H117.757V1.77856H120.622V7.39429H125.455V9.85808H120.622V20.1455C120.622 21.8126 121.589 22.9718 123.306 22.9718H125.454V25.5073H122.553C119.618 25.5073 117.755 23.406 117.755 20.1455L117.757 20.1436Z" fill="black"/>
<path d="M127.603 20.1436V9.85614H124.739V7.39235H127.603V1.77856H130.467V7.39429H135.301V9.85808H130.467V20.1455C130.467 21.8126 131.435 22.9718 133.152 22.9718H135.299V25.5073H132.399C129.463 25.5073 127.601 23.406 127.601 20.1455L127.603 20.1436Z" fill="black"/>
<path d="M136.198 16.1969C136.198 10.7983 140.101 6.85156 145.507 6.85156C150.914 6.85156 154.744 10.8002 154.744 16.2337C154.744 16.6311 154.744 17.0304 154.708 17.3929H139.133C139.599 21.0159 142.176 23.3692 145.756 23.3692C148.406 23.3692 150.625 22.0646 151.736 19.9284L154.171 21.1594C152.74 24.2028 149.588 26.0501 145.686 26.0501C140.172 26.0501 136.198 21.9561 136.198 16.1969ZM139.17 14.8555H151.736C151.234 11.7035 148.764 9.53052 145.398 9.53052C142.032 9.53052 139.706 11.7035 139.168 14.8555H139.17Z" fill="black"/>
<path d="M160.402 15.7607V25.5053H157.43V7.39234H160.365V9.81929H160.653C161.547 7.90022 163.051 7.02985 165.199 7.02985C166.201 7.02985 167.098 7.17523 167.634 7.28379V10.0732C166.774 9.85613 166.059 9.74757 164.806 9.74757C162.264 9.74757 160.402 12.1377 160.402 15.7607Z" fill="black"/>
</svg>
